<svg xmlns="http://www.w3.org/2000/svg" width="124.999" height="125" viewBox="0 0 124.999 125">
  <g id="maly-okrag-pomaranczowy" transform="translate(-15.895 -15.983)">
    <path id="Path_40" data-name="Path 40" d="M228.121,149.726a.754.754,0,0,1-.371-.1.763.763,0,0,1-.293-1.038,62.349,62.349,0,0,0,5.373-12.73c.245-.85.478-1.72.693-2.574A61.009,61.009,0,0,0,134.551,72.4a.763.763,0,0,1-.993-1.158A62.533,62.533,0,0,1,235,133.655c-.22.876-.457,1.763-.71,2.634a63.819,63.819,0,0,1-5.5,13.046A.76.76,0,0,1,228.121,149.726Z" transform="translate(-95.908 -40.208)" fill="#ff9200" fill-rule="evenodd"/>
    <path id="Path_41" data-name="Path 41" d="M118.279,263.071A62.4,62.4,0,0,1,57.662,185.64c.182-.8.408-1.644.705-2.656a63.359,63.359,0,0,1,5.5-13.032.762.762,0,1,1,1.329.747,61.838,61.838,0,0,0-5.365,12.716c-.289.981-.506,1.8-.684,2.578a60.99,60.99,0,0,0,98.341,61.4.762.762,0,0,1,.978,1.169,62.609,62.609,0,0,1-40.184,14.506Z" transform="translate(-39.96 -122.087)" fill="#ff9200" fill-rule="evenodd"/>
    <path id="Path_42" data-name="Path 42" d="M109.131,106.386a3.893,3.893,0,1,0,3.741,2.841A3.911,3.911,0,0,0,109.131,106.386Zm0,9.31a5.419,5.419,0,1,1,1.465-.2A5.431,5.431,0,0,1,109.127,115.7Z" transform="translate(-74.539 -75.358)" fill="#ff9200" fill-rule="evenodd"/>
    <path id="Path_43" data-name="Path 43" d="M423.231,422.255a3.893,3.893,0,1,0,3.74,2.841A3.878,3.878,0,0,0,423.231,422.255Zm0,9.311a5.418,5.418,0,0,1-4.717-8.071,5.377,5.377,0,0,1,3.256-2.562,5.416,5.416,0,1,1,1.461,10.633Z" transform="translate(-301.469 -303.487)" fill="#ff9200" fill-rule="evenodd"/>
  </g>
</svg>
