<svg xmlns="http://www.w3.org/2000/svg" width="184.256" height="184.002" viewBox="0 0 184.256 184.002">
  <g id="okrag-czarny" transform="translate(-22.849 -22.976)">
    <path id="Path_40" data-name="Path 40" d="M273.076,193.875a1.124,1.124,0,0,1-.979-1.671,91.71,91.71,0,0,0,7.92-18.739c.362-1.251.7-2.531,1.021-3.789a89.915,89.915,0,0,0-145.89-89.63,1.123,1.123,0,0,1-1.464-1.7A92.161,92.161,0,0,1,283.217,170.22c-.325,1.289-.674,2.6-1.047,3.877a93.867,93.867,0,0,1-8.114,19.2,1.121,1.121,0,0,1-.981.575Z" transform="translate(-78.766 -33.215)" fill="#343434" fill-rule="evenodd"/>
    <path id="Path_41" data-name="Path 41" d="M147.873,307.208A91.918,91.918,0,0,1,58.519,193.229c.268-1.171.6-2.42,1.039-3.91a93.2,93.2,0,0,1,8.1-19.184,1.123,1.123,0,0,1,1.959,1.1,90.956,90.956,0,0,0-7.908,18.718c-.425,1.444-.745,2.65-1.008,3.795a89.887,89.887,0,0,0,144.961,90.385,1.123,1.123,0,1,1,1.442,1.721,92.367,92.367,0,0,1-59.234,21.353Z" transform="translate(-33.006 -100.23)" fill="#343434" fill-rule="evenodd"/>
    <path id="Path_42" data-name="Path 42" d="M111.7,107.106a5.729,5.729,0,1,0,5.515,4.182A5.773,5.773,0,0,0,111.7,107.106Zm-.006,13.705a7.983,7.983,0,1,1,2.159-.3A8,8,0,0,1,111.692,120.811Z" transform="translate(-61.289 -61.984)" fill="#343434" fill-rule="evenodd"/>
    <path id="Path_43" data-name="Path 43" d="M425.8,422.975a5.729,5.729,0,1,0,5.512,4.182A5.723,5.723,0,0,0,425.8,422.975Zm-.007,13.706a8.007,8.007,0,0,1-7.679-5.82,7.973,7.973,0,0,1,5.525-9.831,7.974,7.974,0,1,1,2.154,15.651Z" transform="translate(-246.896 -248.698)" fill="#343434" fill-rule="evenodd"/>
  </g>
</svg>
