<svg xmlns="http://www.w3.org/2000/svg" width="230" height="230" viewBox="0 0 230 230">
  <g id="okrag-pomaranczowy" transform="translate(0 0)">
    <path id="Path_36" data-name="Path 36" d="M191.681,285.706a114.088,114.088,0,0,1-27.3-3.312c-1.719-.433-3.348-.873-4.845-1.306a117.442,117.442,0,0,1-23.994-10.13c-1.68-.943-3.335-1.954-4.874-2.907a1.123,1.123,0,0,1,1.182-1.909c1.518.939,3.149,1.936,4.79,2.857a115.063,115.063,0,0,0,23.527,9.935c1.467.426,3.068.857,4.756,1.283A112.81,112.81,0,0,0,276.515,96.1a1.123,1.123,0,0,1,1.685-1.485,115.037,115.037,0,0,1-86.518,191.087Z" transform="translate(-76.901 -55.706)" fill="#ff9200" fill-rule="evenodd"/>
    <path id="Path_37" data-name="Path 37" d="M28.639,190.439a1.122,1.122,0,0,1-.852-.391A115.02,115.02,0,0,1,142.463,3.327c1.469.337,3.027.751,4.883,1.3A116.581,116.581,0,0,1,171.315,14.74c1.6.9,3.243,1.878,4.881,2.911a1.123,1.123,0,0,1-1.2,1.9c-1.607-1.012-3.217-1.973-4.784-2.852a114.315,114.315,0,0,0-23.5-9.921c-1.809-.533-3.326-.934-4.768-1.266A112.775,112.775,0,0,0,29.49,188.584a1.123,1.123,0,0,1-.851,1.855Z" fill="#ff9200" fill-rule="evenodd"/>
    <path id="Path_38" data-name="Path 38" d="M466.053,66.581A5.649,5.649,0,1,0,471.49,70.7,5.67,5.67,0,0,0,466.053,66.581Zm-.007,13.544a7.9,7.9,0,1,1,2.137-.3,7.923,7.923,0,0,1-2.137.3Z" transform="translate(-270.733 -38.03)" fill="#ff9200" fill-rule="evenodd"/>
    <path id="Path_39" data-name="Path 39" d="M70.612,459.806a5.65,5.65,0,1,0,1.524,11.088,5.649,5.649,0,0,0-1.524-11.088Zm-.006,13.546a7.9,7.9,0,1,1,7.606-10.028,7.9,7.9,0,0,1-7.606,10.028Z" transform="translate(-37.058 -270.469)" fill="#ff9200" fill-rule="evenodd"/>
  </g>
</svg>
